<?xml version="1.0" encoding="UTF-8" standalone="no"?>
<!-- Created with Inkscape (http://www.inkscape.org/) -->

<svg
   width="100mm"
   height="29mm"
   viewBox="0 0 100 29"
   version="1.1"
   id="svg1"
   inkscape:version="1.4.2 (ebf0e940, 2025-05-08)"
   sodipodi:docname="logo.svg"
   xmlns:inkscape="http://www.inkscape.org/namespaces/inkscape"
   xmlns:sodipodi="http://sodipodi.sourceforge.net/DTD/sodipodi-0.dtd"
   xmlns="http://www.w3.org/2000/svg"
   xmlns:svg="http://www.w3.org/2000/svg">
  <sodipodi:namedview
     id="namedview1"
     pagecolor="#ffffff"
     bordercolor="#000000"
     borderopacity="0.25"
     inkscape:showpageshadow="2"
     inkscape:pageopacity="0.0"
     inkscape:pagecheckerboard="0"
     inkscape:deskcolor="#d1d1d1"
     inkscape:document-units="mm"
     inkscape:zoom="0.5"
     inkscape:cx="222"
     inkscape:cy="112"
     inkscape:window-width="1728"
     inkscape:window-height="975"
     inkscape:window-x="1992"
     inkscape:window-y="25"
     inkscape:window-maximized="0"
     inkscape:current-layer="layer1" />
  <defs
     id="defs1" />
  <g
     inkscape:label="Layer 1"
     inkscape:groupmode="layer"
     id="layer1">
    <path
       d="m 13.073641,29.123003 q -2.646894,0 -5.0768289,-0.867834 -2.386544,-0.911225 -4.252387,-2.690285 -1.822452,-1.822452 -2.95063595,-4.512737 -1.0847923,-2.733677 -1.0847923,-6.335188 0,-3.55812 1.0847923,-6.2917969 1.08479295,-2.7770689 2.95063595,-4.642912 1.865843,-1.9092348 4.3825621,-2.90724396 2.5167178,-0.99800912 5.3805708,-0.99800912 2.733677,0 4.946653,1.12818418 2.212977,1.0847926 3.731687,2.5167187 l -4.07882,4.5995203 Q 17.109069,7.2535862 16.024276,6.7762774 14.939484,6.2989687 13.507558,6.2989687 q -1.301751,0 -2.429936,0.5640921 -1.1281839,0.5640922 -1.9526258,1.605493 -0.824443,1.0414008 -1.3017511,2.5601102 -0.4773089,1.51871 -0.4773089,3.427944 0,3.992037 1.822451,6.11823 1.8224518,2.126194 4.6863038,2.126194 1.388535,0 2.516719,-0.607484 1.171576,-0.650876 2.082801,-1.648885 l 4.07882,4.512737 q -1.779059,2.082802 -4.208995,3.124203 -2.386543,1.0414 -5.250395,1.0414 z m 13.017525,-0.5207 V 0.39769742 h 7.463373 V 10.898489 h 6.074838 V 0.39769742 H 47.09275 V 28.602303 H 39.629377 V 17.407244 H 33.554539 V 28.602303 Z M 60.414017,14.890525 59.9801,16.843152 h 5.033438 L 64.579621,14.890525 Q 64.102312,12.851116 63.53822,10.507964 63.017519,8.1214202 62.540211,5.9518351 h -0.173567 q -0.477309,2.1695851 -0.998009,4.5561289 -0.477309,2.343152 -0.954618,4.382561 z M 49.609484,28.602303 58.114257,0.39769742 h 9.025474 L 75.644504,28.602303 H 67.747215 L 66.35868,22.614248 h -7.723722 l -1.388535,5.988055 z m 28.812107,0 V 0.39769742 h 8.114248 q 3.037419,0 5.554134,0.78105068 2.51672,0.7810506 4.33917,2.4733269 1.82245,1.6922763 2.82046,4.3391701 1.041397,2.6468939 1.041397,6.3785799 0,3.731686 -0.997997,6.421972 -0.99801,2.690285 -2.82046,4.425953 -1.77906,1.735668 -4.209,2.560111 -2.429935,0.824442 -5.293787,0.824442 z m 7.463372,-5.988055 h 0.26035 q 1.345143,0 2.516719,-0.347133 1.214968,-0.390526 2.082801,-1.301751 0.86783,-0.911226 1.38854,-2.516719 0.5207,-1.605493 0.5207,-4.07882 0,-2.473327 -0.5207,-4.035428 Q 91.612663,8.7722957 90.744833,7.9044617 89.877,7.0366277 88.662032,6.7328857 87.490456,6.3857521 86.145313,6.3857521 h -0.26035 z"
       id="text1"
       style="font-weight:900;font-size:43.3917px;font-family:'Source Code Pro';-inkscape-font-specification:'Source Code Pro, Heavy';fill:#0099ff;stroke-width:0.264583"
       aria-label="CHAD" />
  </g>
</svg>
